<svg width="1137" height="532" viewBox="0 0 1137 532" fill="none" xmlns="http://www.w3.org/2000/svg">
<path d="M125.898 528.556L123.947 528.116C145.703 431.365 200.377 343.507 277.898 280.725C336.507 233.333 406.213 201.638 480.452 188.622C554.692 175.607 631.023 181.7 702.258 206.327C773.492 230.955 837.287 273.307 887.636 329.396C937.984 385.485 973.23 453.465 990.053 526.936L988.104 527.379C942.05 325.17 764.829 183.945 557.134 183.945C352.16 183.945 170.8 328.874 125.898 528.556Z" fill="#233142"/>
<path d="M1051.5 482.5L1054.5 504.5L1033.5 506.5L1036.5 479.5L1051.5 482.5Z" fill="#A0616A"/>
<path d="M952.5 180.5C952.5 180.5 954.5 207.5 954.5 208.5C954.5 209.5 940.5 278.5 940.5 278.5C940.5 278.5 920.5 316.5 940.5 315.5C960.5 314.5 954.5 279.5 954.5 279.5L975.5 221.5L966.5 180.5H952.5Z" fill="#FAD1D1"/>
<path d="M985.5 482.5L982.5 504.5L1003.5 506.5L1000.5 479.5L985.5 482.5Z" fill="#A0616A"/>
<path d="M962.5 276.5L957.5 283.5C957.5 283.5 954.5 313.5 957.5 323.5C960.5 333.5 966.5 379.5 966.5 382.5C966.5 385.5 967.5 387.5 966.5 388.5C965.5 389.5 962.5 389.5 964.5 391.5C966.5 393.5 966.5 399.5 966.5 399.5V404.5L979.5 478.5C979.5 478.5 971.5 487.5 977.5 487.5C983.5 487.5 1005.5 487.5 1004.5 477.5L1002.5 476.5C1002.5 476.5 999.5 410.5 1000.5 407.5C1001.5 404.5 1000.5 398.5 1000.5 398.5C1000.5 398.5 998.5 395.5 1000.5 394.5C1002.5 393.5 1002.5 385.5 1002.5 385.5L1011.5 324.5C1011.5 324.5 1019.5 365.5 1024.5 369.5C1029.5 373.5 1028.5 383.5 1028.5 383.5L1032.5 471.5C1032.5 471.5 1028.5 481.5 1032.5 483.5C1036.5 485.5 1053.5 492.5 1054.5 482.5C1055.5 472.5 1060.5 385.5 1060.5 381.5C1060.5 377.5 1059.5 375.5 1060.5 372.5C1061.5 369.5 1059.5 369.5 1060.5 369.5C1061.5 369.5 1058.5 366.5 1058.5 364.5V315.5C1058.5 315.5 1059.5 305.5 1060.5 303.5C1061.5 301.5 1059.5 299.5 1060.5 296.5C1061.5 293.5 1058.5 283.5 1058.5 283.5L1013.5 271.5L962.5 276.5Z" fill="#2F2E41"/>
<path d="M997.5 500.5C997.5 500.5 1002.5 495.5 995.5 495.5C991.006 495.592 986.58 496.613 982.5 498.5L977.5 516.5C977.5 516.5 957 533 980 531C1003 529 999.5 530.5 999.5 530.5C999.5 530.5 1006.5 528.5 1007.5 526.5C1008.5 524.5 1005.5 495.5 1005.5 495.5C1005.5 495.5 1002.5 503.5 997.5 500.5Z" fill="#2F2E41"/>
<path d="M1040.5 500.5C1040.5 500.5 1035.5 495.5 1042.5 495.5C1046.99 495.592 1051.42 496.613 1055.5 498.5L1060.5 516.5C1060.5 516.5 1081 533 1058 531C1035 529 1035.5 530.5 1035.5 530.5C1035.5 530.5 1028.5 528.5 1027.5 526.5C1026.5 524.5 1032.5 495.5 1032.5 495.5C1032.5 495.5 1035.5 503.5 1040.5 500.5Z" fill="#2F2E41"/>
<path d="M295.044 177.432H286.141V529.085H295.044V177.432Z" fill="#233142"/>
<path d="M377.205 222.246C377.771 345.21 291.259 445.294 291.259 445.294C291.259 445.294 203.829 346.012 203.262 223.048C202.695 100.083 289.207 0 289.207 0C289.207 0 376.638 99.2816 377.205 222.246Z" fill="#FCBF1E"/>
<path d="M914.5 383.5H225.5V529.5H914.5V383.5Z" fill="#F2F2F2"/>
<path d="M203.5 399.5L278.5 242.5H877.5L933.5 399.5H203.5Z" fill="#233142"/>
<path d="M668.5 252.5H390.5V344.5H668.5V252.5Z" fill="#F2F2F2"/>
<path d="M408.5 177.5L364.5 269.5H694.5L668.5 177.5H408.5Z" fill="#233142"/>
<path d="M634.5 412.5H415V529.5H634.5V412.5Z" fill="#CCCCCC"/>
<path d="M369.5 416.5H252.5V529.5H369.5V416.5Z" fill="#CCCCCC"/>
<path d="M733 423.5H672.5V529.5H733V423.5Z" fill="#233142"/>
<path d="M1137 529H0V531H1137V529Z" fill="#233142"/>
<path d="M185.78 297.059H179.905V529.112H185.78V297.059Z" fill="#233142"/>
<path d="M239.997 326.631C240.371 407.775 183.282 473.819 183.282 473.819C183.282 473.819 125.587 408.304 125.213 327.16C124.84 246.017 181.928 179.973 181.928 179.973C181.928 179.973 239.623 245.488 239.997 326.631Z" fill="#FCBF1E"/>
<path opacity="0.1" d="M239.997 326.631C240.371 407.775 183.282 473.819 183.282 473.819C183.282 473.819 125.587 408.304 125.213 327.16C124.84 246.017 181.928 179.973 181.928 179.973C181.928 179.973 239.623 245.488 239.997 326.631Z" fill="black"/>
<path d="M109.408 297.059H103.533V529.112H109.408V297.059Z" fill="#233142"/>
<path d="M163.625 326.631C163.999 407.775 106.91 473.819 106.91 473.819C106.91 473.819 49.2154 408.304 48.8414 327.16C48.4675 246.017 105.556 179.973 105.556 179.973C105.556 179.973 163.251 245.488 163.625 326.631Z" fill="#FCBF1E"/>
<path d="M828 429.5H798.5V457H828V429.5Z" fill="#233142"/>
<path d="M867.5 429.5H838V457H867.5V429.5Z" fill="#233142"/>
<path d="M828 467H798.5V495.5H828V467Z" fill="#233142"/>
<path d="M867.5 467H838V495.5H867.5V467Z" fill="#233142"/>
<path d="M439.087 277.674H416V299.196H439.087V277.674Z" fill="#233142"/>
<path d="M470 277.674H446.913V299.196H470V277.674Z" fill="#233142"/>
<path d="M439.087 307.022H416V329.326H439.087V307.022Z" fill="#233142"/>
<path d="M470 307.022H446.913V329.326H470V307.022Z" fill="#233142"/>
<path d="M612.087 277.674H589V299.196H612.087V277.674Z" fill="#233142"/>
<path d="M643 277.674H619.913V299.196H643V277.674Z" fill="#233142"/>
<path d="M612.087 307.022H589V329.326H612.087V307.022Z" fill="#233142"/>
<path d="M643 307.022H619.913V329.326H643V307.022Z" fill="#233142"/>
<path d="M526.087 277.674H503V299.196H526.087V277.674Z" fill="#233142"/>
<path d="M557 277.674H533.913V299.196H557V277.674Z" fill="#233142"/>
<path d="M526.087 307.022H503V329.326H526.087V307.022Z" fill="#233142"/>
<path d="M557 307.022H533.913V329.326H557V307.022Z" fill="#233142"/>
<path d="M700.536 434.239H686V447.79H700.536V434.239Z" fill="#F2F2F2"/>
<path d="M720 434.239H705.464V447.79H720V434.239Z" fill="#F2F2F2"/>
<path d="M700.536 452.717H686V466.761H700.536V452.717Z" fill="#F2F2F2"/>
<path d="M720 452.717H705.464V466.761H720V452.717Z" fill="#F2F2F2"/>
<path d="M725 488C727.209 488 729 486.209 729 484C729 481.791 727.209 480 725 480C722.791 480 721 481.791 721 484C721 486.209 722.791 488 725 488Z" fill="#F2F2F2"/>
<path d="M635 425H415V427H635V425Z" fill="#F2F2F2"/>
<path d="M635 434H415V436H635V434Z" fill="#F2F2F2"/>
<path d="M635 443H415V445H635V443Z" fill="#F2F2F2"/>
<path d="M635 452H415V454H635V452Z" fill="#F2F2F2"/>
<path d="M635 461H415V463H635V461Z" fill="#F2F2F2"/>
<path d="M635 470H415V472H635V470Z" fill="#F2F2F2"/>
<path d="M635 479H415V481H635V479Z" fill="#F2F2F2"/>
<path d="M635 488H415V490H635V488Z" fill="#F2F2F2"/>
<path d="M635 497H415V499H635V497Z" fill="#F2F2F2"/>
<path d="M635 506H415V508H635V506Z" fill="#F2F2F2"/>
<path d="M635 515H415V517H635V515Z" fill="#F2F2F2"/>
<path d="M369.5 425H252.5V427H369.5V425Z" fill="#F2F2F2"/>
<path d="M369.5 434H252.5V436H369.5V434Z" fill="#F2F2F2"/>
<path d="M369.5 443H252.5V445H369.5V443Z" fill="#F2F2F2"/>
<path d="M369.5 452H252.5V454H369.5V452Z" fill="#F2F2F2"/>
<path d="M369.5 461H252.5V463H369.5V461Z" fill="#F2F2F2"/>
<path d="M369.5 470H252.5V472H369.5V470Z" fill="#F2F2F2"/>
<path d="M369.5 479H252.5V481H369.5V479Z" fill="#F2F2F2"/>
<path d="M369.5 488H252.5V490H369.5V488Z" fill="#F2F2F2"/>
<path d="M369.5 497H252.5V499H369.5V497Z" fill="#F2F2F2"/>
<path d="M369.5 506H252.5V508H369.5V506Z" fill="#F2F2F2"/>
<path d="M369.5 515H252.5V517H369.5V515Z" fill="#F2F2F2"/>
<path d="M877 323C921.735 323 958 286.735 958 242C958 197.265 921.735 161 877 161C832.265 161 796 197.265 796 242C796 286.735 832.265 323 877 323Z" fill="#FCBF1E"/>
<path d="M928 234H885V191H869V234H826V250H869V293H885V250H928V234Z" fill="white"/>
<path d="M975.5 101.5C989.859 101.5 1001.5 89.8594 1001.5 75.5C1001.5 61.1406 989.859 49.5 975.5 49.5C961.141 49.5 949.5 61.1406 949.5 75.5C949.5 89.8594 961.141 101.5 975.5 101.5Z" fill="#FAD1D1"/>
<path d="M966.5 94.5C966.5 94.5 970.5 114.5 970.5 117.5C970.5 120.5 987.5 129.5 987.5 129.5L1006.5 105.5C1006.5 105.5 994.5 88.5 994.5 84.5L966.5 94.5Z" fill="#FAD1D1"/>
<path d="M981.5 120.5C981.5 120.5 972.784 118.18 970.142 114.34C970.142 114.34 942.5 141.5 942.5 146.5L964.5 185.5C964.5 185.5 964.5 199.5 966.5 200.5C968.5 201.5 966.5 200.5 966.5 204.5C966.5 208.5 960.5 234.5 962.5 238.5C964.5 242.5 966.5 239.5 964.5 245.5C962.5 251.5 957.5 283.5 957.5 283.5C957.5 283.5 975.5 277.5 1001.5 287.5C1027.5 297.5 1058.5 283.5 1058.5 283.5C1058.5 283.5 1050.5 265.5 1052.5 259.5C1054.5 253.5 1047.5 242.5 1047.5 242.5L1042.5 150.5C1042.5 150.5 1049.5 109.5 1044.5 107.5L1034.5 103.5L1002.48 99.5641C1002.48 99.5641 994.5 119.5 981.5 120.5Z" fill="#005691"/>
<path d="M952.5 139.5L942.5 146.5C942.5 146.5 937.5 161.5 942.5 168.5C947.5 175.5 949.5 185.5 949.5 185.5L969.5 183.5L952.5 139.5Z" fill="#005691"/>
<path d="M1026.5 148.5C1026.5 148.5 1020.71 163.391 1021.92 178.124C1022.14 180.762 1023.03 183.3 1024.5 185.5V185.5L953.556 219.181C953.556 219.181 921.5 222.5 929.5 236.5C937.5 250.5 966.5 229.5 966.5 229.5C966.5 229.5 1042.5 218.5 1048.5 207.5C1054.5 196.5 1058.5 150.5 1058.5 150.5L1026.5 148.5Z" fill="#FAD1D1"/>
<path d="M955.649 48.0225L951.139 46.2169C951.139 46.2169 960.569 35.835 973.689 36.7378L969.999 32.6753C969.999 32.6753 979.019 29.0642 987.219 38.5433C991.53 43.5263 996.517 49.3834 999.626 55.9815H1004.46L1002.44 60.4201L1009.5 64.8587L1002.25 64.0615C1002.94 67.8935 1002.71 71.8336 1001.57 75.557L1001.76 79.0653C1001.76 79.0653 993.369 66.0779 993.369 64.2723V68.7862C993.369 68.7862 988.859 64.7237 988.859 62.0154L986.399 65.1751L985.169 60.2098L969.999 65.1751L972.459 61.1127L963.029 62.4668L966.719 57.5015C966.719 57.5015 956.059 63.3695 955.649 68.3349C955.239 73.3002 949.909 79.6195 949.909 79.6195L947.449 75.1056C947.449 75.1056 943.759 54.7932 955.649 48.0225Z" fill="#2F2E41"/>
<path d="M1029.5 107.5H1044.5C1044.5 107.5 1055.5 109.5 1058.5 129.5C1061.5 149.5 1064.5 154.5 1061.5 154.5C1058.5 154.5 1022.5 153.5 1022.5 152.5C1022.5 151.5 1029.5 107.5 1029.5 107.5Z" fill="#005691"/>
</svg>
