<svg width="512" height="512" viewBox="0 0 512 512" fill="none" xmlns="http://www.w3.org/2000/svg">
<path d="M204 172H323.392C320.551 141.295 307.059 112.55 285.255 90.7454C263.45 68.9406 234.705 55.4492 204 52.608V172Z" fill="#8198B1"/>
<path d="M192 196C188.817 196 185.765 194.736 183.515 192.485C181.264 190.235 180 187.183 180 184V52.608C155.012 54.8761 131.189 64.2188 111.321 79.5414C91.4524 94.8639 76.3627 115.532 67.8197 139.123C59.2766 162.714 57.6341 188.251 63.0846 212.742C68.5351 237.234 80.8528 259.664 98.5943 277.406C116.336 295.147 138.766 307.465 163.258 312.915C187.749 318.366 213.286 316.723 236.877 308.18C260.468 299.637 281.136 284.548 296.459 264.679C311.781 244.811 321.124 220.988 323.392 196H192Z" fill="#8198B1"/>
<path d="M440 172H360C356.817 172 353.765 173.264 351.515 175.515C349.264 177.765 348 180.817 348 184C348 187.183 349.264 190.235 351.515 192.485C353.765 194.736 356.817 196 360 196H440C443.183 196 446.235 194.736 448.485 192.485C450.736 190.235 452 187.183 452 184C452 180.817 450.736 177.765 448.485 175.515C446.235 173.264 443.183 172 440 172Z" fill="#8198B1"/>
<path d="M440 232H360C356.817 232 353.765 233.264 351.515 235.515C349.264 237.765 348 240.817 348 244C348 247.183 349.264 250.235 351.515 252.485C353.765 254.736 356.817 256 360 256H440C443.183 256 446.235 254.736 448.485 252.485C450.736 250.235 452 247.183 452 244C452 240.817 450.736 237.765 448.485 235.515C446.235 233.264 443.183 232 440 232Z" fill="#8198B1"/>
<path d="M440 112H360C356.817 112 353.765 113.264 351.515 115.515C349.264 117.765 348 120.817 348 124C348 127.183 349.264 130.235 351.515 132.485C353.765 134.736 356.817 136 360 136H440C443.183 136 446.235 134.736 448.485 132.485C450.736 130.235 452 127.183 452 124C452 120.817 450.736 117.765 448.485 115.515C446.235 113.264 443.183 112 440 112Z" fill="#8198B1"/>
<path d="M464 4H48C38.4555 4.01059 29.3049 7.80683 22.5558 14.5558C15.8068 21.3049 12.0106 30.4555 12 40V328C12.0106 337.545 15.8068 346.695 22.5558 353.444C29.3049 360.193 38.4555 363.989 48 364H120.208L84.432 492.8C83.6384 495.849 84.0758 499.088 85.6498 501.817C87.2238 504.547 89.8081 506.548 92.8447 507.388C95.8813 508.228 99.1266 507.841 101.88 506.309C104.633 504.777 106.673 502.223 107.56 499.2L125.16 436H386.872L404.472 499.2C405.359 502.223 407.399 504.777 410.152 506.309C412.905 507.841 416.151 508.228 419.187 507.388C422.224 506.548 424.808 504.547 426.382 501.817C427.956 499.088 428.394 495.849 427.6 492.8L391.784 364H464C473.545 363.989 482.695 360.193 489.444 353.444C496.193 346.695 499.989 337.545 500 328V40C499.989 30.4555 496.193 21.3049 489.444 14.5558C482.695 7.80683 473.545 4.01059 464 4V4ZM131.784 412L145.12 364H366.872L380.208 412H131.784ZM476 328C476 331.183 474.736 334.235 472.485 336.485C470.235 338.736 467.183 340 464 340H48C44.8174 340 41.7652 338.736 39.5147 336.485C37.2643 334.235 36 331.183 36 328V40C36 36.8174 37.2643 33.7652 39.5147 31.5147C41.7652 29.2643 44.8174 28 48 28H464C467.183 28 470.235 29.2643 472.485 31.5147C474.736 33.7652 476 36.8174 476 40V328Z" fill="#8198B1"/>
</svg>
