<?xml version="1.0"?>
<svg xmlns="http://www.w3.org/2000/svg" xmlns:xlink="http://www.w3.org/1999/xlink" xmlns:svgjs="http://svgjs.com/svgjs" version="1.1" width="512" height="512" x="0" y="0" viewBox="0 0 64 64" style="enable-background:new 0 0 512 512" xml:space="preserve" class=""><g><title xmlns="http://www.w3.org/2000/svg">target</title><path xmlns="http://www.w3.org/2000/svg" d="M32,15.5A16.5,16.5,0,1,0,48.5,32,16.519,16.519,0,0,0,32,15.5Zm0,23A6.5,6.5,0,1,1,38.5,32,6.508,6.508,0,0,1,32,38.5Z" style="" fill="#fcbf1e" data-original="#3e3ef4" class=""/><path xmlns="http://www.w3.org/2000/svg" d="M62,30.5H58.455A26.535,26.535,0,0,0,33.5,5.545V2a1.5,1.5,0,0,0-3,0V5.545A26.535,26.535,0,0,0,5.545,30.5H2a1.5,1.5,0,0,0,0,3H5.545A26.535,26.535,0,0,0,30.5,58.455V62a1.5,1.5,0,0,0,3,0V58.455A26.535,26.535,0,0,0,58.455,33.5H62a1.5,1.5,0,0,0,0-3Zm-9.061,3h2.508A23.527,23.527,0,0,1,33.5,55.447V52.939A1.455,1.455,0,0,0,32.015,51.5h-.03A1.455,1.455,0,0,0,30.5,52.939v2.508A23.527,23.527,0,0,1,8.553,33.5h2.508A1.455,1.455,0,0,0,12.5,32.015v-.03A1.455,1.455,0,0,0,11.061,30.5H8.553A23.527,23.527,0,0,1,30.5,8.553v2.508A1.455,1.455,0,0,0,31.985,12.5h.03A1.455,1.455,0,0,0,33.5,11.061V8.553A23.527,23.527,0,0,1,55.447,30.5H52.939A1.455,1.455,0,0,0,51.5,31.985v.03A1.455,1.455,0,0,0,52.939,33.5Z" fill="#005691" data-original="#000000" style="" class=""/></g></svg>
