<svg width="512" height="512" viewBox="0 0 512 512" fill="none" xmlns="http://www.w3.org/2000/svg">
<path d="M16 356H44V460H132V356H160C162.272 356 164.497 355.356 166.417 354.141C168.337 352.926 169.873 351.192 170.845 349.139C171.818 347.086 172.188 344.799 171.913 342.544C171.637 340.289 170.727 338.158 169.288 336.4L97.288 248.4C96.1231 247.087 94.6929 246.036 93.0919 245.316C91.4909 244.596 89.7554 244.224 88 244.224C86.2446 244.224 84.5091 244.596 82.9081 245.316C81.3071 246.036 79.8769 247.087 78.712 248.4L6.71199 336.4C5.27315 338.158 4.36295 340.289 4.08724 342.544C3.81153 344.799 4.18162 347.086 5.1545 349.139C6.12737 351.192 7.66305 352.926 9.58296 354.141C11.5029 355.356 13.7281 356 16 356V356Z" fill="#8198B1"/>
<path d="M184 236H212V460H236V224C236 220.817 234.736 217.765 232.485 215.515C230.235 213.264 227.183 212 224 212H209.328L256 154.952L302.672 212H288C284.817 212 281.765 213.264 279.515 215.515C277.264 217.765 276 220.817 276 224V460H300V236H328C330.272 236 332.497 235.356 334.417 234.141C336.337 232.926 337.873 231.192 338.845 229.139C339.818 227.086 340.188 224.799 339.913 222.544C339.637 220.289 338.727 218.158 337.288 216.4L265.288 128.4C264.123 127.087 262.693 126.036 261.092 125.316C259.491 124.596 257.755 124.224 256 124.224C254.245 124.224 252.509 124.596 250.908 125.316C249.307 126.036 247.877 127.087 246.712 128.4L174.712 216.4C173.273 218.158 172.363 220.289 172.087 222.544C171.812 224.799 172.182 227.086 173.155 229.139C174.127 231.192 175.663 232.926 177.583 234.141C179.503 235.356 181.728 236 184 236V236Z" fill="#8198B1"/>
<path d="M496 508H16C12.8174 508 9.76516 506.736 7.51472 504.485C5.26428 502.235 4 499.183 4 496C4 492.817 5.26428 489.765 7.51472 487.515C9.76516 485.264 12.8174 484 16 484H496C499.183 484 502.235 485.264 504.485 487.515C506.736 489.765 508 492.817 508 496C508 499.183 506.736 502.235 504.485 504.485C502.235 506.736 499.183 508 496 508V508Z" fill="#8198B1"/>
<path d="M352 115.776H380V459.776H404V103.776C404 100.593 402.736 97.5412 400.485 95.2907C398.235 93.0403 395.183 91.776 392 91.776H377.312L424 34.728L470.68 91.776H456C452.817 91.776 449.765 93.0403 447.515 95.2907C445.264 97.5412 444 100.593 444 103.776V459.776H468V115.776H496C498.274 115.779 500.502 115.136 502.424 113.921C504.347 112.707 505.885 110.971 506.859 108.917C507.833 106.862 508.204 104.573 507.927 102.316C507.65 100.059 506.738 97.9265 505.296 96.168L433.296 8.168C432.129 6.85691 430.698 5.80763 429.096 5.08913C427.495 4.37063 425.759 3.99918 424.004 3.99918C422.249 3.99918 420.513 4.37063 418.912 5.08913C417.31 5.80763 415.879 6.85691 414.712 8.168L342.712 96.168C341.271 97.926 340.358 100.057 340.081 102.314C339.804 104.57 340.174 106.859 341.147 108.913C342.12 110.968 343.657 112.703 345.578 113.918C347.5 115.133 349.727 115.778 352 115.776Z" fill="#8198B1"/>
</svg>
