<?xml version="1.0"?>
<svg xmlns="http://www.w3.org/2000/svg" xmlns:xlink="http://www.w3.org/1999/xlink" xmlns:svgjs="http://svgjs.com/svgjs" version="1.1" width="512" height="512" x="0" y="0" viewBox="0 0 64 64" style="enable-background:new 0 0 512 512" xml:space="preserve" class=""><g><path xmlns="http://www.w3.org/2000/svg" d="m2 44.5h3.5v13h11v-13h3.5a1.5 1.5 0 0 0 1.161-2.45l-9-11a1.552 1.552 0 0 0 -2.322 0l-9 11a1.5 1.5 0 0 0 1.161 2.45z" fill="#fcbf1e" data-original="#3e3ef4" style="" class=""/><path xmlns="http://www.w3.org/2000/svg" d="m23 29.5h3.5v28h3v-29.5a1.5 1.5 0 0 0 -1.5-1.5h-1.834l5.834-7.131 5.834 7.131h-1.834a1.5 1.5 0 0 0 -1.5 1.5v29.5h3v-28h3.5a1.5 1.5 0 0 0 1.161-2.45l-9-11a1.552 1.552 0 0 0 -2.322 0l-9 11a1.5 1.5 0 0 0 1.161 2.45z" fill="#005691" data-original="#000000" style="" class=""/><path xmlns="http://www.w3.org/2000/svg" d="m62 63.5h-60a1.5 1.5 0 0 1 0-3h60a1.5 1.5 0 0 1 0 3z" fill="#005691" data-original="#000000" style="" class=""/><path xmlns="http://www.w3.org/2000/svg" d="m44 14.472h3.5v43h3v-44.5a1.5 1.5 0 0 0 -1.5-1.5h-1.836l5.836-7.131 5.835 7.131h-1.835a1.5 1.5 0 0 0 -1.5 1.5v44.5h3v-43h3.5a1.5 1.5 0 0 0 1.162-2.451l-9-11a1.555 1.555 0 0 0 -2.323 0l-9 11a1.5 1.5 0 0 0 1.161 2.451z" fill="#005691" data-original="#000000" style="" class=""/></g></svg>
