<svg width="512" height="512" viewBox="0 0 512 512" fill="none" xmlns="http://www.w3.org/2000/svg">
<path d="M366.664 164.72L296.96 154.592L265.76 91.392C264.859 89.5685 263.466 88.0334 261.739 86.96C260.011 85.8866 258.018 85.3178 255.984 85.3178C253.95 85.3178 251.957 85.8866 250.229 86.96C248.502 88.0334 247.109 89.5685 246.208 91.392L215.008 154.592L145.336 164.72C143.323 165.015 141.432 165.866 139.877 167.179C138.322 168.491 137.165 170.213 136.537 172.148C135.909 174.084 135.834 176.156 136.322 178.132C136.809 180.107 137.84 181.907 139.296 183.328L189.736 232.488L177.824 301.912C177.483 303.918 177.709 305.979 178.477 307.864C179.245 309.748 180.524 311.38 182.171 312.577C183.817 313.773 185.764 314.485 187.794 314.633C189.823 314.782 191.854 314.36 193.656 313.416L256 280.632L318.344 313.432C320.147 314.376 322.177 314.798 324.207 314.649C326.236 314.501 328.184 313.789 329.83 312.593C331.476 311.396 332.755 309.764 333.523 307.88C334.291 305.995 334.517 303.934 334.176 301.928L322.264 232.504L372.704 183.344C374.165 181.924 375.2 180.123 375.69 178.145C376.18 176.167 376.107 174.091 375.478 172.153C374.85 170.214 373.691 168.491 372.133 167.177C370.575 165.864 368.681 165.012 366.664 164.72Z" fill="#8198B1"/>
<path d="M389.024 353.176C419.297 326.212 440.661 290.684 450.284 251.303C459.907 211.921 457.335 170.545 442.908 132.658C428.482 94.7713 402.882 62.1633 369.503 39.1561C336.124 16.1488 296.54 3.8287 256 3.8287C215.46 3.8287 175.876 16.1488 142.497 39.1561C109.118 62.1633 83.5181 94.7713 69.0917 132.658C54.6653 170.545 52.0931 211.921 61.7162 251.303C71.3392 290.684 92.7031 326.212 122.976 353.176L73.312 436.712C72.1684 438.637 71.5858 440.843 71.6303 443.081C71.6748 445.319 72.3445 447.5 73.5638 449.378C74.783 451.255 76.5032 452.755 78.5298 453.706C80.5564 454.657 82.8087 455.022 85.032 454.76L161.976 445.68L213.088 503.912C214.566 505.599 216.488 506.837 218.634 507.487C220.781 508.137 223.066 508.173 225.232 507.59C227.398 507.007 229.357 505.828 230.887 504.189C232.417 502.549 233.456 500.513 233.888 498.312L252.696 403.912H259.352L278.16 498.312C278.592 500.513 279.631 502.549 281.161 504.189C282.691 505.828 284.65 507.007 286.816 507.59C288.982 508.173 291.267 508.137 293.414 507.487C295.56 506.837 297.482 505.599 298.96 503.912L350.072 445.68L427.016 454.76C429.239 455.022 431.492 454.657 433.518 453.706C435.545 452.755 437.265 451.255 438.484 449.378C439.704 447.5 440.373 445.319 440.418 443.081C440.462 440.843 439.88 438.637 438.736 436.712L389.024 353.176ZM215.088 469.808L175.888 425.112C174.617 423.641 173.003 422.507 171.189 421.809C169.375 421.111 167.417 420.872 165.488 421.112L106.4 428.08L142.008 368.176C167.788 386.163 197.467 397.78 228.608 402.072L215.088 469.808ZM256 380C221.191 380 187.163 369.678 158.22 350.339C129.277 331 106.718 303.512 93.3973 271.352C80.0762 239.193 76.5908 203.805 83.3818 169.664C90.1728 135.523 106.935 104.163 131.549 79.5492C156.163 54.9352 187.523 38.1728 221.664 31.3818C255.805 24.5908 291.193 28.0762 323.352 41.3972C355.512 54.7182 383 77.2766 402.339 106.22C421.678 135.163 432 169.19 432 204C431.947 250.662 413.387 295.397 380.392 328.392C347.397 361.387 302.662 379.947 256 380V380ZM346.568 421.112C344.639 420.875 342.682 421.116 340.868 421.813C339.055 422.511 337.441 423.644 336.168 425.112L296.928 469.816L283.44 402.072C314.581 397.78 344.26 386.163 370.04 368.176L405.6 428.08L346.568 421.112Z" fill="#8198B1"/>
</svg>
