<?xml version="1.0"?>
<svg xmlns="http://www.w3.org/2000/svg" xmlns:xlink="http://www.w3.org/1999/xlink" xmlns:svgjs="http://svgjs.com/svgjs" version="1.1" width="512" height="512" x="0" y="0" viewBox="0 0 64 64" style="enable-background:new 0 0 512 512" xml:space="preserve" class=""><g><path xmlns="http://www.w3.org/2000/svg" d="m62.215 42.879-9.584-1.392-4.286-8.687a1.5 1.5 0 0 0 -2.691 0l-4.286 8.685-9.584 1.392a1.5 1.5 0 0 0 -.831 2.559l6.935 6.76-1.638 9.548a1.5 1.5 0 0 0 2.177 1.581l8.573-4.507 8.573 4.507a1.5 1.5 0 0 0 2.176-1.581l-1.638-9.544 6.935-6.76a1.5 1.5 0 0 0 -.831-2.561z" fill="#fcbf1e" data-original="#3e3ef4" style="" class=""/><path xmlns="http://www.w3.org/2000/svg" d="m42.232 15.658h-9.943v-6.553a8.615 8.615 0 0 0 -8.6-8.6 4.5 4.5 0 0 0 -4.5 4.5v4.574a6.087 6.087 0 0 1 -4.778 5.935 3.492 3.492 0 0 0 -3.3-2.385h-7.111a3.5 3.5 0 0 0 -3.5 3.5v31.371a3.5 3.5 0 0 0 3.5 3.5h7.105a3.5 3.5 0 0 0 3.346-2.526h15.828c-1.051-1.121-1.95-1.61-2.484-3h-13.19v-27.451a9.087 9.087 0 0 0 7.579-8.944v-4.579a1.5 1.5 0 0 1 1.5-1.5 5.612 5.612 0 0 1 5.605 5.605v8.053a1.5 1.5 0 0 0 1.5 1.5h11.443a4.5 4.5 0 0 1 4.439 5.24l-.871 5.234a4.512 4.512 0 0 1 3.006.212l.825-4.953a7.5 7.5 0 0 0 -7.399-8.733zm-30.627 31.808v.534a.5.5 0 0 1 -.5.5h-7.105a.5.5 0 0 1 -.5-.5v-31.371a.5.5 0 0 1 .5-.5h7.105a.5.5 0 0 1 .5.5z" fill="#005691" data-original="#000000" style="" class=""/></g></svg>
