<svg width="512" height="512" viewBox="0 0 512 512" fill="none" xmlns="http://www.w3.org/2000/svg">
<path d="M354.344 390.344H157.656C133.886 390.371 111.097 399.825 94.2891 416.633C77.4811 433.441 68.0266 456.23 68 480C68.0002 483.183 69.2645 486.235 71.5149 488.485C73.7653 490.736 76.8175 492 80 492H432C435.183 492 438.235 490.736 440.485 488.485C442.736 486.235 444 483.183 444 480C443.973 456.23 434.519 433.441 417.711 416.633C400.903 399.825 378.114 390.371 354.344 390.344V390.344ZM93.1016 468C95.9219 452.935 103.916 439.328 115.703 429.531C127.49 419.734 142.329 414.362 157.656 414.344H354.344C369.671 414.362 384.51 419.734 396.297 429.531C408.084 439.328 416.078 452.935 418.898 468H93.1016Z" fill="#8198B1"/>
<path d="M290.398 229.734C309.372 229.8 327.757 223.148 342.296 210.956C331.89 195.172 317.354 182.543 300.271 174.445C283.187 166.346 264.21 163.088 245.404 165.024C226.597 166.96 208.682 174.017 193.607 185.426C178.531 196.836 166.874 212.161 159.902 229.734H290.398Z" fill="#8198B1"/>
<path d="M290.398 253.734H153.585C151.365 269.312 152.725 285.191 157.564 300.163C162.403 315.135 170.593 328.807 181.51 340.139C192.427 351.47 205.785 360.163 220.567 365.555C235.349 370.948 251.166 372.899 266.815 371.259C282.464 369.62 297.534 364.433 310.877 356.094C324.221 347.755 335.487 336.483 343.818 323.134C352.15 309.786 357.328 294.714 358.959 279.064C360.59 263.414 358.63 247.598 353.229 232.819C335.117 246.438 313.059 253.781 290.398 253.734Z" fill="#8198B1"/>
<path d="M451.533 291.516L463.048 280H391.533C388.35 280 385.298 278.736 383.047 276.485C380.797 274.235 379.533 271.183 379.533 268C379.533 264.817 380.797 261.765 383.047 259.515C385.298 257.264 388.35 256 391.533 256H463.048L451.533 244.484C449.283 242.234 448.018 239.182 448.018 236C448.018 232.818 449.283 229.766 451.533 227.516C453.783 225.265 456.835 224.001 460.017 224.001C463.199 224.001 466.251 225.265 468.501 227.516L500.495 259.509C502.74 261.765 504 264.818 504 268C504 271.182 502.74 274.235 500.495 276.491L468.501 308.484C466.251 310.735 463.199 311.999 460.017 311.999C456.835 311.999 453.783 310.735 451.533 308.484C449.283 306.234 448.018 303.182 448.018 300C448.018 296.818 449.283 293.766 451.533 291.516V291.516Z" fill="#8198B1"/>
<path d="M60.4671 291.516L48.9515 280H120.467C123.65 280 126.702 278.736 128.952 276.485C131.203 274.235 132.467 271.183 132.467 268C132.467 264.817 131.203 261.765 128.952 259.515C126.702 257.264 123.65 256 120.467 256H48.9515L60.4671 244.484C62.7173 242.234 63.9815 239.182 63.9815 236C63.9815 232.818 62.7173 229.766 60.4671 227.516C58.2169 225.265 55.165 224.001 51.9827 224.001C48.8005 224.001 45.7485 225.265 43.4983 227.516L11.5052 259.509C9.26028 261.765 8 264.818 8 268C8 271.182 9.26028 274.235 11.5052 276.491L43.4983 308.484C44.6125 309.599 45.9353 310.482 47.391 311.085C48.8468 311.688 50.407 311.999 51.9827 311.999C53.5584 311.999 55.1187 311.688 56.5745 311.085C58.0302 310.482 59.3529 309.599 60.4671 308.484C61.5813 307.37 62.4651 306.047 63.0681 304.592C63.6711 303.136 63.9815 301.576 63.9815 300C63.9815 298.424 63.6711 296.864 63.0681 295.408C62.4651 293.953 61.5813 292.63 60.4671 291.516V291.516Z" fill="#8198B1"/>
<path d="M410.89 146.365V130.08L360.321 180.649C358.07 182.898 355.019 184.16 351.837 184.159C348.656 184.158 345.605 182.894 343.356 180.644C341.106 178.395 339.842 175.344 339.841 172.162C339.84 168.981 341.102 165.929 343.351 163.679L393.92 113.109H377.634C374.452 113.109 371.4 111.845 369.15 109.595C366.9 107.345 365.636 104.293 365.636 101.111C365.636 97.9284 366.9 94.8764 369.15 92.6263C371.4 90.3761 374.452 89.1119 377.634 89.1119H422.88C426.062 89.1197 429.112 90.3873 431.362 92.6376C433.612 94.8878 434.88 97.9376 434.888 101.12V146.365C434.888 149.547 433.624 152.599 431.373 154.849C429.123 157.1 426.071 158.364 422.889 158.364C419.707 158.364 416.655 157.1 414.405 154.849C412.155 152.599 410.89 149.547 410.89 146.365L410.89 146.365Z" fill="#8198B1"/>
<path d="M279.516 72.4672L268 60.9515V132.467C268 135.65 266.736 138.702 264.485 140.952C262.235 143.203 259.183 144.467 256 144.467C252.817 144.467 249.765 143.203 247.515 140.952C245.264 138.702 244 135.65 244 132.467V60.9515L232.484 72.4672C230.234 74.7174 227.182 75.9815 224 75.9815C220.818 75.9815 217.766 74.7174 215.516 72.4672C213.265 70.217 212.001 67.1651 212.001 63.9828C212.001 60.8005 213.265 57.7486 215.516 55.4984L247.509 23.5053C249.765 21.2603 252.817 20.0001 256 20.0001C259.182 20.0001 262.235 21.2603 264.491 23.5053L296.484 55.4984C298.735 57.7486 299.999 60.8005 299.999 63.9828C299.999 67.1651 298.735 70.217 296.484 72.4672C294.234 74.7174 291.182 75.9815 288 75.9815C284.818 75.9815 281.766 74.7174 279.516 72.4672V72.4672Z" fill="#8198B1"/>
<path d="M134.365 113.109H118.08L168.649 163.679C170.897 165.929 172.16 168.981 172.159 172.162C172.158 175.344 170.894 178.395 168.644 180.644C166.395 182.894 163.344 184.158 160.162 184.159C156.981 184.16 153.929 182.897 151.679 180.649L101.109 130.08V146.366C101.109 147.941 100.799 149.501 100.196 150.957C99.5929 152.413 98.7091 153.736 97.5949 154.85C96.4807 155.964 95.158 156.848 93.7022 157.451C92.2465 158.054 90.6862 158.364 89.1105 158.364C87.5348 158.364 85.9746 158.054 84.5188 157.451C83.0631 156.848 81.7403 155.964 80.6262 154.85C79.512 153.736 78.6282 152.413 78.0252 150.957C77.4222 149.501 77.1118 147.941 77.1118 146.366V101.12C77.1196 97.9377 78.3872 94.8879 80.6375 92.6376C82.8877 90.3873 85.9375 89.1197 89.1199 89.112H134.365C137.547 89.112 140.599 90.3761 142.849 92.6263C145.1 94.8765 146.364 97.9285 146.364 101.111C146.364 104.293 145.1 107.345 142.849 109.595C140.599 111.845 137.547 113.109 134.365 113.109L134.365 113.109Z" fill="#8198B1"/>
</svg>
