<?xml version="1.0"?>
<svg xmlns="http://www.w3.org/2000/svg" xmlns:xlink="http://www.w3.org/1999/xlink" xmlns:svgjs="http://svgjs.com/svgjs" version="1.1" width="512" height="512" x="0" y="0" viewBox="0 0 64 64" style="enable-background:new 0 0 512 512" xml:space="preserve" class=""><g><path xmlns="http://www.w3.org/2000/svg" d="m35 .5a1.5 1.5 0 0 0 -1.5 1.5v27a1.5 1.5 0 0 0 1.5 1.5h27a1.5 1.5 0 0 0 1.5-1.5 28.532 28.532 0 0 0 -28.5-28.5z" fill="#fcbf1e" data-original="#3e3ef4" style="" class=""/><path xmlns="http://www.w3.org/2000/svg" d="m56 33.5h-25.5v-25.5a1.5 1.5 0 0 0 -1.5-1.5 28.5 28.5 0 1 0 28.5 28.5 1.5 1.5 0 0 0 -1.5-1.5zm-28.5 26.956a25.5 25.5 0 0 1 0-50.913zm3 0v-23.956h23.957a25.54 25.54 0 0 1 -23.957 23.956z" fill="#005691" data-original="#000000" style="" class=""/></g></svg>
