<?xml version="1.0"?>
<svg xmlns="http://www.w3.org/2000/svg" xmlns:xlink="http://www.w3.org/1999/xlink" xmlns:svgjs="http://svgjs.com/svgjs" version="1.1" width="512" height="512" x="0" y="0" viewBox="0 0 64 64" style="enable-background:new 0 0 512 512" xml:space="preserve" class=""><g><g xmlns="http://www.w3.org/2000/svg" fill="#3e3ef4"><rect height="9" rx="1.5" width="9" x="11.5" y="6.5" fill="#fcbf1e" data-original="#3e3ef4" style="" class=""/><rect height="9" rx="1.5" width="9" x="23.5" y="6.5" fill="#fcbf1e" data-original="#3e3ef4" style="" class=""/><rect height="9" rx="1.5" width="9" x="11.5" y="18.5" fill="#fcbf1e" data-original="#3e3ef4" style="" class=""/><rect height="9" rx="1.5" width="9" x="23.5" y="18.5" fill="#fcbf1e" data-original="#3e3ef4" style="" class=""/><rect height="9" rx="1.5" width="9" x="11.5" y="30.5" fill="#fcbf1e" data-original="#3e3ef4" style="" class=""/><rect height="9" rx="1.5" width="9" x="23.5" y="30.5" fill="#fcbf1e" data-original="#3e3ef4" style="" class=""/></g><path xmlns="http://www.w3.org/2000/svg" d="m50 23h-6a1.5 1.5 0 0 0 -1.5 1.5v6a1.5 1.5 0 0 0 1.5 1.5h6a1.5 1.5 0 0 0 1.5-1.5v-6a1.5 1.5 0 0 0 -1.5-1.5zm-1.5 6h-3v-3h3z" fill="#005691" data-original="#000000" style="" class=""/><path xmlns="http://www.w3.org/2000/svg" d="m50 35h-6a1.5 1.5 0 0 0 -1.5 1.5v6a1.5 1.5 0 0 0 1.5 1.5h6a1.5 1.5 0 0 0 1.5-1.5v-6a1.5 1.5 0 0 0 -1.5-1.5zm-1.5 6h-3v-3h3z" fill="#005691" data-original="#000000" style="" class=""/><path xmlns="http://www.w3.org/2000/svg" d="m50 47h-6a1.5 1.5 0 0 0 -1.5 1.5v6a1.5 1.5 0 0 0 1.5 1.5h6a1.5 1.5 0 0 0 1.5-1.5v-6a1.5 1.5 0 0 0 -1.5-1.5zm-1.5 6h-3v-3h3z" fill="#005691" data-original="#000000" style="" class=""/><path xmlns="http://www.w3.org/2000/svg" d="m62 60.5h-3.5v-40.5a4.505 4.505 0 0 0 -4.5-4.5h-15.5v-10.5a4.5 4.5 0 0 0 -4.5-4.5h-24a4.505 4.505 0 0 0 -4.5 4.5v55.5h-3.5a1.5 1.5 0 0 0 0 3h60a1.5 1.5 0 0 0 0-3zm-35.5 0h-9v-12h9zm9-43.5v43.5h-6v-13.5a1.5 1.5 0 0 0 -1.5-1.5h-12a1.5 1.5 0 0 0 -1.5 1.5v13.5h-6v-55.5a1.5 1.5 0 0 1 1.5-1.5h24a1.5 1.5 0 0 1 1.5 1.5zm20 43.5h-17v-42h15.5a1.5 1.5 0 0 1 1.5 1.5z" fill="#005691" data-original="#000000" style="" class=""/></g></svg>
