<svg width="512" height="512" viewBox="0 0 512 512" fill="none" xmlns="http://www.w3.org/2000/svg">
<path d="M152 52H104C97.3726 52 92 57.3726 92 64V112C92 118.627 97.3726 124 104 124H152C158.627 124 164 118.627 164 112V64C164 57.3726 158.627 52 152 52Z" fill="#8198B1"/>
<path d="M248 52H200C193.373 52 188 57.3726 188 64V112C188 118.627 193.373 124 200 124H248C254.627 124 260 118.627 260 112V64C260 57.3726 254.627 52 248 52Z" fill="#8198B1"/>
<path d="M152 148H104C97.3726 148 92 153.373 92 160V208C92 214.627 97.3726 220 104 220H152C158.627 220 164 214.627 164 208V160C164 153.373 158.627 148 152 148Z" fill="#8198B1"/>
<path d="M248 148H200C193.373 148 188 153.373 188 160V208C188 214.627 193.373 220 200 220H248C254.627 220 260 214.627 260 208V160C260 153.373 254.627 148 248 148Z" fill="#8198B1"/>
<path d="M152 244H104C97.3726 244 92 249.373 92 256V304C92 310.627 97.3726 316 104 316H152C158.627 316 164 310.627 164 304V256C164 249.373 158.627 244 152 244Z" fill="#8198B1"/>
<path d="M248 244H200C193.373 244 188 249.373 188 256V304C188 310.627 193.373 316 200 316H248C254.627 316 260 310.627 260 304V256C260 249.373 254.627 244 248 244Z" fill="#8198B1"/>
<path d="M400 184H352C348.817 184 345.765 185.264 343.515 187.515C341.264 189.765 340 192.817 340 196V244C340 247.183 341.264 250.235 343.515 252.485C345.765 254.736 348.817 256 352 256H400C403.183 256 406.235 254.736 408.485 252.485C410.736 250.235 412 247.183 412 244V196C412 192.817 410.736 189.765 408.485 187.515C406.235 185.264 403.183 184 400 184V184ZM388 232H364V208H388V232Z" fill="#8198B1"/>
<path d="M400 280H352C348.817 280 345.765 281.264 343.515 283.515C341.264 285.765 340 288.817 340 292V340C340 343.183 341.264 346.235 343.515 348.485C345.765 350.736 348.817 352 352 352H400C403.183 352 406.235 350.736 408.485 348.485C410.736 346.235 412 343.183 412 340V292C412 288.817 410.736 285.765 408.485 283.515C406.235 281.264 403.183 280 400 280V280ZM388 328H364V304H388V328Z" fill="#8198B1"/>
<path d="M400 376H352C348.817 376 345.765 377.264 343.515 379.515C341.264 381.765 340 384.817 340 388V436C340 439.183 341.264 442.235 343.515 444.485C345.765 446.736 348.817 448 352 448H400C403.183 448 406.235 446.736 408.485 444.485C410.736 442.235 412 439.183 412 436V388C412 384.817 410.736 381.765 408.485 379.515C406.235 377.264 403.183 376 400 376V376ZM388 424H364V400H388V424Z" fill="#8198B1"/>
<path d="M496 484H468V160C467.989 150.455 464.193 141.305 457.444 134.556C450.695 127.807 441.545 124.011 432 124H308V40C308 30.4522 304.207 21.2955 297.456 14.5442C290.705 7.79285 281.548 4 272 4H80C70.4555 4.01059 61.3049 7.80683 54.5559 14.5558C47.8068 21.3049 44.0106 30.4555 44 40V484H16C12.8174 484 9.76516 485.264 7.51472 487.515C5.26428 489.765 4 492.817 4 496C4 499.183 5.26428 502.235 7.51472 504.485C9.76516 506.736 12.8174 508 16 508H496C499.183 508 502.235 506.736 504.485 504.485C506.736 502.235 508 499.183 508 496C508 492.817 506.736 489.765 504.485 487.515C502.235 485.264 499.183 484 496 484V484ZM212 484H140V388H212V484ZM284 136V484H236V376C236 372.817 234.736 369.765 232.485 367.515C230.235 365.264 227.183 364 224 364H128C124.817 364 121.765 365.264 119.515 367.515C117.264 369.765 116 372.817 116 376V484H68V40C68 36.8174 69.2643 33.7652 71.5147 31.5147C73.7652 29.2643 76.8174 28 80 28H272C275.183 28 278.235 29.2643 280.485 31.5147C282.736 33.7652 284 36.8174 284 40V136ZM444 484H308V148H432C435.183 148 438.235 149.264 440.485 151.515C442.736 153.765 444 156.817 444 160V484Z" fill="#8198B1"/>
</svg>
