<svg width="512" height="512" viewBox="0 0 512 512" fill="none" xmlns="http://www.w3.org/2000/svg">
<path d="M376 244C349.893 244 324.372 251.742 302.665 266.246C280.958 280.75 264.039 301.366 254.048 325.486C244.057 349.606 241.443 376.146 246.536 401.752C251.63 427.357 264.201 450.878 282.662 469.338C301.122 487.799 324.643 500.37 350.248 505.464C375.854 510.557 402.394 507.943 426.514 497.952C450.634 487.961 471.25 471.043 485.754 449.335C500.258 427.628 508 402.107 508 376C507.96 341.004 494.04 307.452 469.294 282.706C444.548 257.96 410.996 244.04 376 244V244ZM436 407.68H316C312.817 407.68 309.765 406.416 307.515 404.165C305.264 401.915 304 398.863 304 395.68C304 392.497 305.264 389.445 307.515 387.195C309.765 384.944 312.817 383.68 316 383.68H436C439.183 383.68 442.235 384.944 444.485 387.195C446.736 389.445 448 392.497 448 395.68C448 398.863 446.736 401.915 444.485 404.165C442.235 406.416 439.183 407.68 436 407.68V407.68ZM436 368.32H316C312.817 368.32 309.765 367.056 307.515 364.805C305.264 362.555 304 359.503 304 356.32C304 353.137 305.264 350.085 307.515 347.835C309.765 345.584 312.817 344.32 316 344.32H436C439.183 344.32 442.235 345.584 444.485 347.835C446.736 350.085 448 353.137 448 356.32C448 359.503 446.736 362.555 444.485 364.805C442.235 367.056 439.183 368.32 436 368.32V368.32Z" fill="#8198B1"/>
<path d="M88.416 139H165.6C168.783 139 171.835 137.736 174.085 135.485C176.336 133.235 177.6 130.183 177.6 127C177.6 123.817 176.336 120.765 174.085 118.515C171.835 116.264 168.783 115 165.6 115H88.416C85.2334 115 82.1812 116.264 79.9307 118.515C77.6803 120.765 76.416 123.817 76.416 127C76.416 130.183 77.6803 133.235 79.9307 135.485C82.1812 137.736 85.2334 139 88.416 139V139Z" fill="#8198B1"/>
<path d="M143 297C143 293.836 142.062 290.742 140.304 288.111C138.545 285.48 136.047 283.429 133.123 282.218C130.199 281.007 126.982 280.69 123.879 281.307C120.775 281.925 117.924 283.449 115.686 285.686C113.449 287.924 111.925 290.775 111.307 293.879C110.69 296.982 111.007 300.199 112.218 303.123C113.429 306.047 115.48 308.545 118.111 310.304C120.742 312.062 123.836 313 127 313C131.243 313 135.313 311.314 138.314 308.314C141.314 305.313 143 301.243 143 297Z" fill="#8198B1"/>
<path d="M127 415C135.837 415 143 407.837 143 399C143 390.163 135.837 383 127 383C118.163 383 111 390.163 111 399C111 407.837 118.163 415 127 415Z" fill="#8198B1"/>
<path d="M202 349C202 345.817 200.736 342.765 198.485 340.515C196.235 338.264 193.183 337 190 337H64C60.8174 337 57.7652 338.264 55.5147 340.515C53.2643 342.765 52 345.817 52 349C52 352.183 53.2643 355.235 55.5147 357.485C57.7652 359.736 60.8174 361 64 361H190C193.183 361 196.235 359.736 198.485 357.485C200.736 355.235 202 352.183 202 349Z" fill="#8198B1"/>
<path d="M399.328 114.4H360.4V76.672C360.4 73.4894 359.136 70.4372 356.885 68.1867C354.635 65.9363 351.582 64.672 348.4 64.672C345.217 64.672 342.165 65.9363 339.915 68.1867C337.664 70.4372 336.4 73.4894 336.4 76.672V114.4H298.672C295.489 114.4 292.437 115.664 290.187 117.915C287.936 120.165 286.672 123.217 286.672 126.4C286.672 129.583 287.936 132.635 290.187 134.885C292.437 137.136 295.489 138.4 298.672 138.4H336.4V177.328C336.4 180.511 337.664 183.563 339.915 185.813C342.165 188.064 345.217 189.328 348.4 189.328C351.582 189.328 354.635 188.064 356.885 185.813C359.136 183.563 360.4 180.511 360.4 177.328V138.4H399.328C402.51 138.4 405.563 137.136 407.813 134.885C410.064 132.635 411.328 129.583 411.328 126.4C411.328 123.217 410.064 120.165 407.813 117.915C405.563 115.664 402.51 114.4 399.328 114.4Z" fill="#8198B1"/>
<path d="M436 4H40C30.4555 4.01059 21.3049 7.80683 14.5558 14.5558C7.80683 21.3049 4.01059 30.4555 4 40V436C4.01059 445.545 7.80683 454.695 14.5558 461.444C21.3049 468.193 30.4555 471.989 40 472H253.296C247.388 464.494 242.185 456.46 237.752 448H40C36.8174 448 33.7652 446.736 31.5147 444.485C29.2643 442.235 28 439.183 28 436V250H226V333.64C231.02 315.935 239.146 299.262 250 284.4V250H284.4C299.262 239.146 315.935 231.02 333.64 226H250V28H436C439.183 28 442.235 29.2643 444.485 31.5147C446.736 33.7652 448 36.8174 448 40V237.752C456.46 242.185 464.494 247.388 472 253.296V40C471.989 30.4555 468.193 21.3049 461.444 14.5558C454.695 7.80683 445.545 4.01059 436 4V4ZM226 226H28V40C28 36.8174 29.2643 33.7652 31.5147 31.5147C33.7652 29.2643 36.8174 28 40 28H226V226Z" fill="#8198B1"/>
</svg>
