<?xml version="1.0"?>
<svg xmlns="http://www.w3.org/2000/svg" xmlns:xlink="http://www.w3.org/1999/xlink" xmlns:svgjs="http://svgjs.com/svgjs" version="1.1" width="512" height="512" x="0" y="0" viewBox="0 0 64 64" style="enable-background:new 0 0 512 512" xml:space="preserve" class=""><g><path xmlns="http://www.w3.org/2000/svg" d="m47 30.5a16.5 16.5 0 1 0 16.5 16.5 16.519 16.519 0 0 0 -16.5-16.5zm7.5 20.46h-15a1.5 1.5 0 0 1 0-3h15a1.5 1.5 0 0 1 0 3zm0-4.92h-15a1.5 1.5 0 0 1 0-3h15a1.5 1.5 0 0 1 0 3z" fill="#fcbf1e" data-original="#3e3ef4" style="" class=""/><path xmlns="http://www.w3.org/2000/svg" d="m11.052 17.375h9.648a1.5 1.5 0 0 0 0-3h-9.648a1.5 1.5 0 0 0 0 3z" fill="#005691" data-original="#000000" style="" class=""/><path xmlns="http://www.w3.org/2000/svg" d="m17.875 37.125a2 2 0 1 0 -2 2 2 2 0 0 0 2-2z" fill="#005691" data-original="#000000" style="" class=""/><circle xmlns="http://www.w3.org/2000/svg" cx="15.875" cy="49.875" r="2" fill="#005691" data-original="#000000" style="" class=""/><path xmlns="http://www.w3.org/2000/svg" d="m25.25 43.625a1.5 1.5 0 0 0 -1.5-1.5h-15.75a1.5 1.5 0 0 0 0 3h15.75a1.5 1.5 0 0 0 1.5-1.5z" fill="#005691" data-original="#000000" style="" class=""/><path xmlns="http://www.w3.org/2000/svg" d="m49.916 14.3h-4.866v-4.716a1.5 1.5 0 0 0 -3 0v4.716h-4.716a1.5 1.5 0 0 0 0 3h4.716v4.866a1.5 1.5 0 0 0 3 0v-4.866h4.866a1.5 1.5 0 0 0 0-3z" fill="#005691" data-original="#000000" style="" class=""/><path xmlns="http://www.w3.org/2000/svg" d="m54.5.5h-49.5a4.505 4.505 0 0 0 -4.5 4.5v49.5a4.505 4.505 0 0 0 4.5 4.5h26.662a19.435 19.435 0 0 1 -1.943-3h-24.719a1.5 1.5 0 0 1 -1.5-1.5v-23.25h24.75v10.455a19.417 19.417 0 0 1 3-6.155v-4.3h4.3a19.417 19.417 0 0 1 6.155-3h-10.455v-24.75h23.25a1.5 1.5 0 0 1 1.5 1.5v24.719a19.435 19.435 0 0 1 3 1.943v-26.662a4.505 4.505 0 0 0 -4.5-4.5zm-26.25 27.75h-24.75v-23.25a1.5 1.5 0 0 1 1.5-1.5h23.25z" fill="#005691" data-original="#000000" style="" class=""/></g></svg>
