<svg height="512pt" viewBox="0 0 512 512.01225" width="512pt" xmlns="http://www.w3.org/2000/svg"><path d="m88.28125 353.101562v-176.550781c0-9.75 7.90625-17.652343 17.65625-17.652343h388.414062c9.75 0 17.65625 7.902343 17.65625 17.652343v317.792969c0 9.75-7.90625 17.65625-17.65625 17.65625h-388.414062c-9.75 0-17.65625-7.90625-17.65625-17.65625zm0 0" fill="#894b9d"/><path d="m88.28125 344.277344v-114.761719h423.726562v211.863281h-423.726562" fill="#b49aca"/><path d="m132.417969 194.207031c0 4.875-3.949219 8.828125-8.824219 8.828125s-8.828125-3.953125-8.828125-8.828125 3.953125-8.828125 8.828125-8.828125 8.824219 3.953125 8.824219 8.828125zm0 0" fill="#f0c419"/><path d="m167.730469 194.207031c0 4.875-3.953125 8.828125-8.828125 8.828125s-8.828125-3.953125-8.828125-8.828125 3.953125-8.828125 8.828125-8.828125 8.828125 3.953125 8.828125 8.828125zm0 0" fill="#ff5364"/><path d="m203.039062 194.207031c0 4.875-3.949218 8.828125-8.824218 8.828125-4.878906 0-8.828125-3.953125-8.828125-8.828125s3.949219-8.828125 8.828125-8.828125c4.875 0 8.824218 3.953125 8.824218 8.828125zm0 0" fill="#46b29d"/><path d="m361.9375 0h-344.277344c-9.738281.0273438-17.6249998 7.917969-17.6523435 17.65625v300.136719c.0273437 9.738281 7.9140625 17.625 17.6523435 17.65625h70.621094v-158.898438c.03125-9.738281 7.917969-17.625 17.65625-17.652343h273.65625v-141.242188c-.03125-9.738281-7.917969-17.6289062-17.65625-17.65625zm0 0" fill="#b0d3f0"/><path d="m88.28125 264.828125v70.621094h-70.621094c-9.738281-.03125-17.6249998-7.917969-17.6523435-17.65625v-52.964844zm0 0" fill="#285680"/><path d="m379.59375 17.65625v52.964844h-379.5859375v-52.964844c.0273437-9.738281 7.9140625-17.6289062 17.6523435-17.65625h344.277344c9.738281.0273438 17.625 7.917969 17.65625 17.65625zm0 0" fill="#285680"/><path d="m52.972656 114.757812h-17.65625c-4.875 0-8.828125-3.953124-8.828125-8.828124s3.953125-8.828126 8.828125-8.828126h17.65625c4.875 0 8.828125 3.953126 8.828125 8.828126s-3.953125 8.828124-8.828125 8.828124zm0 0" fill="#285680"/><path d="m52.972656 150.070312h-17.65625c-4.875 0-8.828125-3.953124-8.828125-8.828124s3.953125-8.828126 8.828125-8.828126h17.65625c4.875 0 8.828125 3.953126 8.828125 8.828126s-3.953125 8.828124-8.828125 8.828124zm0 0" fill="#285680"/><path d="m52.972656 185.378906h-17.65625c-4.875 0-8.828125-3.953125-8.828125-8.828125s3.953125-8.828125 8.828125-8.828125h17.65625c4.875 0 8.828125 3.953125 8.828125 8.828125s-3.953125 8.828125-8.828125 8.828125zm0 0" fill="#285680"/><path d="m52.972656 220.691406h-17.65625c-4.875 0-8.828125-3.953125-8.828125-8.828125s3.953125-8.828125 8.828125-8.828125h17.65625c4.875 0 8.828125 3.953125 8.828125 8.828125s-3.953125 8.828125-8.828125 8.828125zm0 0" fill="#285680"/><path d="m344.28125 114.757812h-70.621094c-4.875 0-8.828125-3.953124-8.828125-8.828124s3.953125-8.828126 8.828125-8.828126h70.621094c4.875 0 8.828125 3.953126 8.828125 8.828126s-3.953125 8.828124-8.828125 8.828124zm0 0" fill="#285680"/><path d="m238.351562 114.757812h-150.070312c-4.875 0-8.828125-3.953124-8.828125-8.828124s3.953125-8.828126 8.828125-8.828126h150.070312c4.875 0 8.828126 3.953126 8.828126 8.828126s-3.953126 8.828124-8.828126 8.828124zm0 0" fill="#285680"/><path d="m17.488281 469.359375 24.980469-24.980469 24.980469 24.980469-24.980469 24.980469zm0 0" fill="#41767f"/><path d="m42.46875 494.34375-12.449219 12.449219c-3.667969 3.695312-8.785156 5.585937-13.976562 5.160156-5.191407-.425781-9.929688-3.121094-12.945313-7.367187-4.914062-7.40625-3.796875-17.273438 2.644532-23.394532l11.742187-11.828125zm0 0" fill="#3f5c6c"/><path d="m241.351562 337.921875c-3.523437 32.128906-30.886718 56.320313-63.203124 55.875-5.945313-.125-11.835938-1.136719-17.480469-3-6.507813-2.257813-13.730469-.691406-18.714844 4.0625l-74.503906 74.503906-24.980469-24.984375 74.503906-74.503906c4.828125-4.90625 6.40625-12.152344 4.058594-18.625-1.808594-5.6875-2.820312-11.601562-3-17.566406-.417969-32.292969 23.773438-59.617188 55.878906-63.117188 8.996094-.929687 18.085938.21875 26.570313 3.355469l-33.191407 33.191406c-3.316406 3.308594-5.179687 7.804688-5.179687 12.488281 0 4.6875 1.863281 9.179688 5.179687 12.492188l12.535157 12.445312c3.3125 3.316407 7.804687 5.179688 12.492187 5.179688 4.683594 0 9.179688-1.863281 12.488282-5.179688l33.191406-33.191406c3.046875 8.507813 4.191406 17.578125 3.355468 26.574219zm0 0" fill="#3f5c6c"/><g fill="#3d324c"><path d="m414.902344 273.65625h-176.550782c-4.875 0-8.828124-3.953125-8.828124-8.828125s3.953124-8.828125 8.828124-8.828125h176.550782c4.875 0 8.828125 3.953125 8.828125 8.828125s-3.953125 8.828125-8.828125 8.828125zm0 0"/><path d="m476.695312 273.65625h-26.480468c-4.878906 0-8.828125-3.953125-8.828125-8.828125s3.949219-8.828125 8.828125-8.828125h26.480468c4.875 0 8.828126 3.953125 8.828126 8.828125s-3.953126 8.828125-8.828126 8.828125zm0 0"/><path d="m335.453125 414.898438h-26.480469c-4.875 0-8.828125-3.953126-8.828125-8.828126s3.953125-8.828124 8.828125-8.828124h26.480469c4.875 0 8.828125 3.953124 8.828125 8.828124s-3.953125 8.828126-8.828125 8.828126zm0 0"/><path d="m273.660156 414.898438h-35.308594c-4.875 0-8.828124-3.953126-8.828124-8.828126s3.953124-8.828124 8.828124-8.828124h35.308594c4.875 0 8.828125 3.953124 8.828125 8.828124s-3.953125 8.828126-8.828125 8.828126zm0 0"/><path d="m476.695312 414.898438h-105.929687c-4.875 0-8.828125-3.953126-8.828125-8.828126s3.953125-8.828124 8.828125-8.828124h105.929687c4.875 0 8.828126 3.953124 8.828126 8.828124s-3.953126 8.828126-8.828126 8.828126zm0 0"/><path d="m344.28125 308.964844h-70.621094c-4.875 0-8.828125-3.953125-8.828125-8.828125s3.953125-8.828125 8.828125-8.828125h70.621094c4.875 0 8.828125 3.953125 8.828125 8.828125s-3.953125 8.828125-8.828125 8.828125zm0 0"/><path d="m476.695312 308.964844h-97.101562c-4.875 0-8.828125-3.953125-8.828125-8.828125s3.953125-8.828125 8.828125-8.828125h97.101562c4.875 0 8.828126 3.953125 8.828126 8.828125s-3.953126 8.828125-8.828126 8.828125zm0 0"/><path d="m397.246094 344.277344h-105.929688c-4.875 0-8.828125-3.953125-8.828125-8.828125s3.953125-8.828125 8.828125-8.828125h105.929688c4.875 0 8.828125 3.953125 8.828125 8.828125s-3.953125 8.828125-8.828125 8.828125zm0 0"/><path d="m476.695312 344.277344h-44.136718c-4.875 0-8.828125-3.953125-8.828125-8.828125s3.953125-8.828125 8.828125-8.828125h44.136718c4.875 0 8.828126 3.953125 8.828126 8.828125s-3.953126 8.828125-8.828126 8.828125zm0 0"/><path d="m361.9375 379.585938h-88.277344c-4.875 0-8.828125-3.953126-8.828125-8.828126s3.953125-8.828124 8.828125-8.828124h88.277344c4.875 0 8.828125 3.953124 8.828125 8.828124s-3.953125 8.828126-8.828125 8.828126zm0 0"/><path d="m476.695312 379.585938h-79.449218c-4.875 0-8.828125-3.953126-8.828125-8.828126s3.953125-8.828124 8.828125-8.828124h79.449218c4.875 0 8.828126 3.953124 8.828126 8.828124s-3.953126 8.828126-8.828126 8.828126zm0 0"/></g><path d="m44.144531 35.308594c0 4.878906-3.953125 8.828125-8.828125 8.828125s-8.828125-3.949219-8.828125-8.828125c0-4.875 3.953125-8.824219 8.828125-8.824219s8.828125 3.949219 8.828125 8.824219zm0 0" fill="#f0c419"/><path d="m79.453125 35.308594c0 4.878906-3.949219 8.828125-8.828125 8.828125-4.875 0-8.824219-3.949219-8.824219-8.828125 0-4.875 3.949219-8.824219 8.824219-8.824219 4.878906 0 8.828125 3.949219 8.828125 8.824219zm0 0" fill="#ff5364"/><path d="m114.765625 35.308594c0 4.878906-3.953125 8.828125-8.828125 8.828125s-8.828125-3.949219-8.828125-8.828125c0-4.875 3.953125-8.824219 8.828125-8.824219s8.828125 3.949219 8.828125 8.824219zm0 0" fill="#46b29d"/></svg>